
<svg viewBox="0 0 32 32">
<path d="M25.43,29.03c-0.5,0-1-0.19-1.39-0.57c-0.77-0.76-0.77-2,0-2.77c5.36-5.34,5.36-14.03,0-19.38c-0.77-0.76-0.77-2,0-2.77
	s2.01-0.76,2.78,0c3.34,3.33,5.17,7.75,5.17,12.46s-1.84,9.13-5.17,12.46C26.44,28.84,25.94,29.03,25.43,29.03L25.43,29.03
	L25.43,29.03z M18.46,25.34c-0.5,0-1-0.19-1.39-0.57c-0.77-0.76-0.77-2,0-2.77c3.32-3.31,3.32-8.69,0-11.99
	c-0.77-0.76-0.77-2,0-2.77c0.77-0.76,2.01-0.76,2.78,0c4.85,4.83,4.85,12.7,0,17.53C19.47,25.15,18.96,25.34,18.46,25.34
	L18.46,25.34z"/>
<path d="M13,32c-0.26,0-0.52-0.12-0.71-0.33l-7.71-8.81H1c-0.55,0-1-0.51-1-1.14V10.29c0-0.63,0.45-1.14,1-1.14h3.59l7.71-8.81
	c0.29-0.33,0.72-0.43,1.09-0.25S14,0.68,14,1.14v29.71c0,0.46-0.24,0.88-0.62,1.06C13.26,31.97,13.13,32,13,32z"/>
</svg>